<svg width="300" height="300" viewBox="0 0 300 300" fill="none" xmlns="http://www.w3.org/2000/svg">
<path d="M167.288 116.747C166.431 116.062 165.348 115.725 164.255 115.801H147.593L163.152 98.4302L164.609 96.8152L165.555 95.6728C165.814 95.3075 166.026 94.9101 166.185 94.4911C166.364 94.0396 166.457 93.5586 166.461 93.0731C166.57 91.9244 166.001 90.8165 165.003 90.237C163.708 89.6447 162.289 89.3743 160.867 89.4492H141.33C140.298 89.3788 139.275 89.687 138.454 90.3158C137.776 90.8933 137.398 91.7491 137.43 92.6398C137.43 93.9791 137.863 94.7669 138.769 95.082C140.049 95.4444 141.379 95.6039 142.708 95.5547H155.313C154.788 96.2898 154.092 97.1564 153.226 98.1544L149.956 101.857L145.702 106.584L140.621 112.217C138.848 114.186 137.706 115.526 137.154 116.156C135.904 117.675 136.059 119.907 137.509 121.237C138.552 122.081 139.873 122.503 141.211 122.419H164.215C165.316 122.505 166.41 122.182 167.288 121.513C167.957 120.928 168.332 120.077 168.312 119.189C168.346 118.264 167.971 117.37 167.288 116.747Z" fill="#CDCDCD"/>
<path d="M202.03 136.559C201.341 136.008 200.468 135.741 199.588 135.811H186.353L198.761 121.946L199.942 120.646L200.691 119.74C200.901 119.448 201.073 119.13 201.203 118.794C201.35 118.431 201.43 118.044 201.439 117.652C201.538 116.733 201.092 115.84 200.297 115.367C199.261 114.892 198.126 114.675 196.988 114.737H181.547C180.725 114.691 179.914 114.943 179.262 115.446C178.718 115.904 178.413 116.587 178.435 117.298C178.435 118.361 178.79 118.991 179.499 119.267C180.521 119.566 181.586 119.7 182.65 119.661H192.576C192.143 120.252 191.592 120.921 190.922 121.749L188.322 124.703L184.935 128.642L180.996 133.132C179.578 134.708 178.646 135.785 178.199 136.362C177.271 137.553 177.39 139.252 178.475 140.301C179.291 140.87 180.28 141.135 181.271 141.05H199.627C200.501 141.12 201.369 140.868 202.069 140.341C202.59 139.869 202.878 139.192 202.857 138.49C202.875 137.757 202.574 137.052 202.03 136.559Z" fill="#CDCDCD"/>
<path d="M243.311 114.541C242.454 113.856 241.372 113.519 240.278 113.595H223.655L239.214 96.2243L240.632 94.4517L241.578 93.3094C241.836 92.9431 242.048 92.5462 242.208 92.1277C242.387 91.6762 242.48 91.1952 242.484 90.7097C242.594 89.5609 242.024 88.4531 241.026 87.8736C239.682 87.2098 238.191 86.8982 236.693 86.9676H217.392C216.36 86.8972 215.338 87.2054 214.517 87.8342C213.838 88.4117 213.461 89.2675 213.493 90.1582C213.493 91.4975 213.926 92.2853 214.832 92.6004C216.112 92.9623 217.441 93.1218 218.771 93.0731H231.376C230.85 93.8082 230.168 94.6748 229.327 95.6728L226.058 99.3755L221.804 104.102L216.723 109.735C214.95 111.705 213.808 113.044 213.256 113.674C212.743 114.297 212.451 115.073 212.429 115.88C212.376 116.966 212.81 118.02 213.611 118.756C214.65 119.538 215.938 119.916 217.235 119.819H240.239C241.339 119.905 242.433 119.583 243.311 118.913C243.98 118.329 244.355 117.477 244.335 116.589C244.263 115.802 243.897 115.071 243.311 114.541Z" fill="#CDCDCD"/>
<path d="M228.553 180.001C227.544 179.523 226.379 179.497 225.349 179.928H225.388C182.69 197.589 133.759 177.292 116.098 134.594C107.14 112.937 107.677 88.5146 117.577 67.272C118.507 65.3054 117.667 62.9573 115.7 62.0272C114.691 61.5496 113.526 61.5235 112.496 61.9543C65.69 81.1817 43.3326 134.712 62.5595 181.518C81.7864 228.324 135.317 250.681 182.123 231.454C203.471 222.685 220.723 206.183 230.431 185.246C231.361 183.279 230.52 180.931 228.553 180.001Z" fill="#CDCDCD"/>
<path d="M67.9545 270.545V288H65.9091L56.3977 274.295H56.2273V288H54.1136V270.545H56.1591L65.7045 284.284H65.875V270.545H67.9545ZM77.2294 288.273C76.0476 288.273 75.0107 287.991 74.1186 287.429C73.2322 286.866 72.5391 286.08 72.0391 285.068C71.5447 284.057 71.2976 282.875 71.2976 281.523C71.2976 280.159 71.5447 278.969 72.0391 277.952C72.5391 276.935 73.2322 276.145 74.1186 275.582C75.0107 275.02 76.0476 274.739 77.2294 274.739C78.4112 274.739 79.4453 275.02 80.3317 275.582C81.2237 276.145 81.9169 276.935 82.4112 277.952C82.9112 278.969 83.1612 280.159 83.1612 281.523C83.1612 282.875 82.9112 284.057 82.4112 285.068C81.9169 286.08 81.2237 286.866 80.3317 287.429C79.4453 287.991 78.4112 288.273 77.2294 288.273ZM77.2294 286.466C78.1271 286.466 78.8658 286.236 79.4453 285.776C80.0249 285.315 80.4538 284.71 80.7322 283.96C81.0107 283.21 81.1499 282.398 81.1499 281.523C81.1499 280.648 81.0107 279.832 80.7322 279.077C80.4538 278.321 80.0249 277.71 79.4453 277.244C78.8658 276.778 78.1271 276.545 77.2294 276.545C76.3317 276.545 75.593 276.778 75.0135 277.244C74.4339 277.71 74.005 278.321 73.7266 279.077C73.4482 279.832 73.3089 280.648 73.3089 281.523C73.3089 282.398 73.4482 283.21 73.7266 283.96C74.005 284.71 74.4339 285.315 75.0135 285.776C75.593 286.236 76.3317 286.466 77.2294 286.466ZM91.9247 274.909V276.614H85.1406V274.909H91.9247ZM87.1179 271.773H89.1293V284.25C89.1293 284.818 89.2116 285.244 89.3764 285.528C89.5469 285.807 89.7628 285.994 90.0241 286.091C90.2912 286.182 90.5724 286.227 90.8679 286.227C91.0895 286.227 91.2713 286.216 91.4134 286.193C91.5554 286.165 91.669 286.142 91.7543 286.125L92.1634 287.932C92.027 287.983 91.8366 288.034 91.5923 288.085C91.348 288.142 91.0384 288.17 90.6634 288.17C90.0952 288.17 89.5384 288.048 88.9929 287.804C88.4531 287.56 88.0043 287.188 87.6463 286.688C87.294 286.188 87.1179 285.557 87.1179 284.795V271.773ZM97.2429 280.125V288H95.2315V270.545H97.2429V276.955H97.4134C97.7202 276.278 98.1804 275.741 98.794 275.344C99.4134 274.94 100.237 274.739 101.266 274.739C102.158 274.739 102.939 274.918 103.609 275.276C104.28 275.628 104.8 276.17 105.169 276.903C105.544 277.631 105.732 278.557 105.732 279.682V288H103.72V279.818C103.72 278.778 103.45 277.974 102.911 277.406C102.376 276.832 101.635 276.545 100.686 276.545C100.027 276.545 99.4361 276.685 98.9134 276.963C98.3963 277.241 97.9872 277.648 97.6861 278.182C97.3906 278.716 97.2429 279.364 97.2429 280.125ZM109.411 288V274.909H111.423V288H109.411ZM110.434 272.727C110.042 272.727 109.704 272.594 109.42 272.327C109.141 272.06 109.002 271.739 109.002 271.364C109.002 270.989 109.141 270.668 109.42 270.401C109.704 270.134 110.042 270 110.434 270C110.826 270 111.161 270.134 111.44 270.401C111.724 270.668 111.866 270.989 111.866 271.364C111.866 271.739 111.724 272.06 111.44 272.327C111.161 272.594 110.826 272.727 110.434 272.727ZM117.118 280.125V288H115.107V274.909H117.05V276.955H117.22C117.527 276.29 117.993 275.756 118.618 275.352C119.243 274.943 120.05 274.739 121.038 274.739C121.925 274.739 122.7 274.92 123.365 275.284C124.03 275.642 124.547 276.188 124.916 276.92C125.286 277.648 125.47 278.568 125.47 279.682V288H123.459V279.818C123.459 278.79 123.192 277.989 122.658 277.415C122.124 276.835 121.391 276.545 120.459 276.545C119.817 276.545 119.243 276.685 118.737 276.963C118.237 277.241 117.842 277.648 117.553 278.182C117.263 278.716 117.118 279.364 117.118 280.125ZM134.43 293.182C133.458 293.182 132.623 293.057 131.924 292.807C131.225 292.562 130.643 292.239 130.177 291.835C129.717 291.438 129.35 291.011 129.077 290.557L130.68 289.432C130.862 289.67 131.092 289.943 131.37 290.25C131.648 290.562 132.029 290.832 132.512 291.06C133.001 291.293 133.64 291.409 134.43 291.409C135.487 291.409 136.359 291.153 137.046 290.642C137.734 290.131 138.077 289.33 138.077 288.239V285.58H137.907C137.759 285.818 137.549 286.114 137.276 286.466C137.009 286.812 136.623 287.122 136.117 287.395C135.617 287.662 134.941 287.795 134.089 287.795C133.032 287.795 132.083 287.545 131.242 287.045C130.407 286.545 129.745 285.818 129.256 284.864C128.773 283.909 128.532 282.75 128.532 281.386C128.532 280.045 128.768 278.878 129.239 277.884C129.711 276.884 130.367 276.111 131.208 275.565C132.049 275.014 133.021 274.739 134.123 274.739C134.975 274.739 135.651 274.881 136.151 275.165C136.657 275.443 137.043 275.761 137.31 276.119C137.583 276.472 137.793 276.761 137.941 276.989H138.146V274.909H140.089V288.375C140.089 289.5 139.833 290.415 139.322 291.119C138.816 291.83 138.134 292.349 137.276 292.679C136.424 293.014 135.475 293.182 134.43 293.182ZM134.362 285.989C135.168 285.989 135.85 285.804 136.407 285.435C136.964 285.065 137.387 284.534 137.677 283.841C137.967 283.148 138.112 282.318 138.112 281.352C138.112 280.409 137.969 279.577 137.685 278.855C137.401 278.134 136.981 277.568 136.424 277.159C135.867 276.75 135.18 276.545 134.362 276.545C133.509 276.545 132.799 276.761 132.231 277.193C131.668 277.625 131.245 278.205 130.961 278.932C130.683 279.659 130.543 280.466 130.543 281.352C130.543 282.261 130.685 283.065 130.969 283.764C131.259 284.457 131.685 285.003 132.248 285.401C132.816 285.793 133.521 285.989 134.362 285.989ZM160.339 274.909C160.237 274.045 159.822 273.375 159.094 272.898C158.367 272.42 157.475 272.182 156.418 272.182C155.646 272.182 154.969 272.307 154.39 272.557C153.816 272.807 153.367 273.151 153.043 273.588C152.725 274.026 152.566 274.523 152.566 275.08C152.566 275.545 152.677 275.946 152.898 276.281C153.126 276.611 153.415 276.886 153.768 277.108C154.12 277.324 154.489 277.503 154.876 277.645C155.262 277.781 155.617 277.892 155.941 277.977L157.714 278.455C158.168 278.574 158.674 278.739 159.231 278.949C159.793 279.159 160.33 279.446 160.842 279.81C161.359 280.168 161.785 280.628 162.12 281.19C162.455 281.753 162.623 282.443 162.623 283.261C162.623 284.205 162.376 285.057 161.881 285.818C161.393 286.58 160.677 287.185 159.734 287.634C158.796 288.082 157.657 288.307 156.316 288.307C155.066 288.307 153.984 288.105 153.069 287.702C152.16 287.298 151.444 286.736 150.921 286.014C150.404 285.293 150.112 284.455 150.043 283.5H152.225C152.282 284.159 152.504 284.705 152.89 285.136C153.282 285.562 153.776 285.881 154.373 286.091C154.975 286.295 155.623 286.398 156.316 286.398C157.123 286.398 157.847 286.267 158.489 286.006C159.131 285.739 159.64 285.369 160.015 284.898C160.39 284.42 160.577 283.864 160.577 283.227C160.577 282.648 160.415 282.176 160.092 281.812C159.768 281.449 159.342 281.153 158.813 280.926C158.285 280.699 157.714 280.5 157.1 280.33L154.952 279.716C153.589 279.324 152.509 278.764 151.714 278.037C150.918 277.31 150.521 276.358 150.521 275.182C150.521 274.205 150.785 273.352 151.313 272.625C151.847 271.892 152.563 271.324 153.461 270.92C154.364 270.511 155.373 270.307 156.487 270.307C157.612 270.307 158.612 270.509 159.487 270.912C160.362 271.31 161.055 271.855 161.566 272.548C162.083 273.241 162.356 274.028 162.384 274.909H160.339ZM171.314 288.273C170.053 288.273 168.964 287.994 168.05 287.438C167.141 286.875 166.439 286.091 165.945 285.085C165.456 284.074 165.212 282.898 165.212 281.557C165.212 280.216 165.456 279.034 165.945 278.011C166.439 276.983 167.126 276.182 168.007 275.608C168.893 275.028 169.928 274.739 171.109 274.739C171.791 274.739 172.464 274.852 173.129 275.08C173.794 275.307 174.399 275.676 174.945 276.188C175.49 276.693 175.925 277.364 176.249 278.199C176.572 279.034 176.734 280.062 176.734 281.284V282.136H166.643V280.398H174.689C174.689 279.659 174.541 279 174.246 278.42C173.956 277.841 173.541 277.384 173.001 277.048C172.467 276.713 171.837 276.545 171.109 276.545C170.308 276.545 169.615 276.744 169.03 277.142C168.45 277.534 168.004 278.045 167.692 278.676C167.379 279.307 167.223 279.983 167.223 280.705V281.864C167.223 282.852 167.393 283.69 167.734 284.378C168.081 285.06 168.561 285.58 169.175 285.938C169.788 286.29 170.501 286.466 171.314 286.466C171.842 286.466 172.32 286.392 172.746 286.244C173.178 286.091 173.55 285.864 173.862 285.562C174.175 285.256 174.416 284.875 174.587 284.42L176.53 284.966C176.325 285.625 175.982 286.205 175.499 286.705C175.016 287.199 174.419 287.585 173.709 287.864C172.999 288.136 172.2 288.273 171.314 288.273ZM181.805 270.545V288H179.794V270.545H181.805ZM190.978 288.273C189.717 288.273 188.629 287.994 187.714 287.438C186.805 286.875 186.103 286.091 185.609 285.085C185.12 284.074 184.876 282.898 184.876 281.557C184.876 280.216 185.12 279.034 185.609 278.011C186.103 276.983 186.79 276.182 187.671 275.608C188.558 275.028 189.592 274.739 190.773 274.739C191.455 274.739 192.129 274.852 192.793 275.08C193.458 275.307 194.063 275.676 194.609 276.188C195.154 276.693 195.589 277.364 195.913 278.199C196.237 279.034 196.398 280.062 196.398 281.284V282.136H186.308V280.398H194.353C194.353 279.659 194.205 279 193.91 278.42C193.62 277.841 193.205 277.384 192.665 277.048C192.131 276.713 191.501 276.545 190.773 276.545C189.972 276.545 189.279 276.744 188.694 277.142C188.114 277.534 187.668 278.045 187.356 278.676C187.043 279.307 186.887 279.983 186.887 280.705V281.864C186.887 282.852 187.058 283.69 187.398 284.378C187.745 285.06 188.225 285.58 188.839 285.938C189.452 286.29 190.165 286.466 190.978 286.466C191.506 286.466 191.984 286.392 192.41 286.244C192.842 286.091 193.214 285.864 193.526 285.562C193.839 285.256 194.08 284.875 194.251 284.42L196.194 284.966C195.989 285.625 195.646 286.205 195.163 286.705C194.68 287.199 194.083 287.585 193.373 287.864C192.663 288.136 191.864 288.273 190.978 288.273ZM204.776 288.273C203.549 288.273 202.492 287.983 201.606 287.403C200.719 286.824 200.038 286.026 199.56 285.009C199.083 283.991 198.844 282.83 198.844 281.523C198.844 280.193 199.089 279.02 199.577 278.003C200.072 276.98 200.759 276.182 201.64 275.608C202.526 275.028 203.56 274.739 204.742 274.739C205.663 274.739 206.492 274.909 207.231 275.25C207.969 275.591 208.575 276.068 209.046 276.682C209.518 277.295 209.81 278.011 209.924 278.83H207.913C207.759 278.233 207.418 277.705 206.89 277.244C206.367 276.778 205.663 276.545 204.776 276.545C203.992 276.545 203.305 276.75 202.714 277.159C202.129 277.562 201.671 278.134 201.342 278.872C201.018 279.605 200.856 280.466 200.856 281.455C200.856 282.466 201.015 283.347 201.333 284.097C201.657 284.847 202.112 285.429 202.697 285.844C203.288 286.259 203.981 286.466 204.776 286.466C205.299 286.466 205.773 286.375 206.2 286.193C206.626 286.011 206.987 285.75 207.282 285.409C207.577 285.068 207.788 284.659 207.913 284.182H209.924C209.81 284.955 209.529 285.651 209.08 286.27C208.637 286.884 208.049 287.372 207.316 287.736C206.589 288.094 205.742 288.273 204.776 288.273ZM218.558 274.909V276.614H211.773V274.909H218.558ZM213.751 271.773H215.762V284.25C215.762 284.818 215.844 285.244 216.009 285.528C216.18 285.807 216.396 285.994 216.657 286.091C216.924 286.182 217.205 286.227 217.501 286.227C217.722 286.227 217.904 286.216 218.046 286.193C218.188 286.165 218.302 286.142 218.387 286.125L218.796 287.932C218.66 287.983 218.469 288.034 218.225 288.085C217.981 288.142 217.671 288.17 217.296 288.17C216.728 288.17 216.171 288.048 215.626 287.804C215.086 287.56 214.637 287.188 214.279 286.688C213.927 286.188 213.751 285.557 213.751 284.795V271.773ZM226.931 288.273C225.67 288.273 224.582 287.994 223.667 287.438C222.758 286.875 222.056 286.091 221.562 285.085C221.073 284.074 220.829 282.898 220.829 281.557C220.829 280.216 221.073 279.034 221.562 278.011C222.056 276.983 222.744 276.182 223.624 275.608C224.511 275.028 225.545 274.739 226.727 274.739C227.408 274.739 228.082 274.852 228.746 275.08C229.411 275.307 230.016 275.676 230.562 276.188C231.107 276.693 231.542 277.364 231.866 278.199C232.19 279.034 232.352 280.062 232.352 281.284V282.136H222.261V280.398H230.306C230.306 279.659 230.158 279 229.863 278.42C229.573 277.841 229.158 277.384 228.619 277.048C228.085 276.713 227.454 276.545 226.727 276.545C225.925 276.545 225.232 276.744 224.647 277.142C224.067 277.534 223.621 278.045 223.309 278.676C222.996 279.307 222.84 279.983 222.84 280.705V281.864C222.84 282.852 223.011 283.69 223.352 284.378C223.698 285.06 224.178 285.58 224.792 285.938C225.406 286.29 226.119 286.466 226.931 286.466C227.46 286.466 227.937 286.392 228.363 286.244C228.795 286.091 229.167 285.864 229.479 285.562C229.792 285.256 230.033 284.875 230.204 284.42L232.147 284.966C231.942 285.625 231.599 286.205 231.116 286.705C230.633 287.199 230.036 287.585 229.326 287.864C228.616 288.136 227.817 288.273 226.931 288.273ZM240.354 288.273C239.263 288.273 238.3 287.997 237.465 287.446C236.63 286.889 235.977 286.105 235.505 285.094C235.033 284.077 234.798 282.875 234.798 281.489C234.798 280.114 235.033 278.92 235.505 277.909C235.977 276.898 236.633 276.116 237.474 275.565C238.315 275.014 239.286 274.739 240.388 274.739C241.241 274.739 241.914 274.881 242.408 275.165C242.908 275.443 243.289 275.761 243.55 276.119C243.817 276.472 244.025 276.761 244.173 276.989H244.343V270.545H246.354V288H244.411V285.989H244.173C244.025 286.227 243.815 286.528 243.542 286.892C243.269 287.25 242.88 287.571 242.374 287.855C241.869 288.134 241.195 288.273 240.354 288.273ZM240.627 286.466C241.434 286.466 242.116 286.256 242.673 285.835C243.229 285.409 243.653 284.821 243.942 284.071C244.232 283.315 244.377 282.443 244.377 281.455C244.377 280.477 244.235 279.622 243.951 278.889C243.667 278.151 243.246 277.577 242.69 277.168C242.133 276.753 241.445 276.545 240.627 276.545C239.775 276.545 239.065 276.764 238.496 277.202C237.934 277.634 237.511 278.222 237.227 278.966C236.948 279.705 236.809 280.534 236.809 281.455C236.809 282.386 236.951 283.233 237.235 283.994C237.525 284.75 237.951 285.352 238.513 285.801C239.082 286.244 239.786 286.466 240.627 286.466Z" fill="#CDCDCD"/>
</svg>
