<svg width="48" height="48" viewBox="0 0 48 48" fill="none" xmlns="http://www.w3.org/2000/svg">
<g clip-path="url(#clip0_1368_4836)">
<rect x="33" y="37" width="21" height="27" transform="rotate(-180 33 37)" fill="white"/>
<path d="M24 0C10.7451 0 0 10.7451 0 24C0 37.2546 10.7451 48 24 48C37.2549 48 48 37.2546 48 24C48 10.7451 37.2549 0 24 0ZM31.3133 25.6254C31.1963 25.7424 31.068 25.8413 30.9344 25.9272L21.9272 34.9344C21.4898 35.3722 20.9163 35.5909 20.3429 35.5909C19.7694 35.5909 19.1963 35.3722 18.7586 34.9344C17.8834 34.0592 17.8834 32.64 18.7586 31.7651L26.52 24.0026L18.7976 16.2802C17.9224 15.4045 17.9224 13.9858 18.7976 13.1109C19.6728 12.2357 21.0917 12.2362 21.9669 13.1104L30.9342 22.0773C31.0678 22.1632 31.1962 22.2619 31.3126 22.379C31.76 22.8264 31.9758 23.4157 31.9658 24.0024C31.9763 24.5888 31.761 25.1778 31.3133 25.6254Z" fill="black"/>
</g>
<defs>
<clipPath id="clip0_1368_4836">
<rect width="48" height="48" fill="white"/>
</clipPath>
</defs>
</svg>
    