<svg width="48" height="48" viewBox="0 0 48 48" fill="none" xmlns="http://www.w3.org/2000/svg">
<g clip-path="url(#clip0_1368_4830)">
<rect x="15" y="11" width="21" height="27" fill="white"/>
<path d="M24 48C37.2549 48 48 37.2549 48 24C48 10.7454 37.2549 2.01225e-06 24 3.17103e-06C10.7451 4.32981e-06 -2.18401e-06 10.7454 -1.02526e-06 24C1.33515e-07 37.2549 10.7451 48 24 48ZM16.6867 22.3746C16.8037 22.2576 16.932 22.1587 17.0656 22.0728L26.0728 13.0656C26.5102 12.6278 27.0837 12.4091 27.6571 12.4091C28.2306 12.4091 28.8037 12.6278 29.2414 13.0656C30.1166 13.9408 30.1166 15.36 29.2414 16.2349L21.48 23.9974L29.2024 31.7198C30.0776 32.5955 30.0776 34.0142 29.2024 34.8891C28.3272 35.7643 26.9083 35.7638 26.0331 34.8896L17.0658 25.9227C16.9322 25.8368 16.8038 25.7381 16.6874 25.621C16.24 25.1736 16.0242 24.5843 16.0342 23.9976C16.0237 23.4112 16.239 22.8222 16.6867 22.3746Z" fill="black"/>
</g>
<defs>
<clipPath id="clip0_1368_4830">
<rect width="48" height="48" fill="white"/>
</clipPath>
</defs>
</svg>
